<?xml version="1.0" encoding="utf-8"?>
<!-- Generator: Adobe Illustrator 19.1.0, SVG Export Plug-In . SVG Version: 6.00 Build 0)  -->
<svg version="1.1" id="Layer_1" xmlns="http://www.w3.org/2000/svg" xmlns:xlink="http://www.w3.org/1999/xlink" x="0px" y="0px"
	 viewBox="0 0 20 20" style="enable-background:new 0 0 20 20;" xml:space="preserve">
<path d="M4.8,18.1V1.9c0-0.5,0.5-1,1-1h8.5c0.6,0,1,0.4,1,1v16.1c0,0.5-0.4,1-1,1H5.8C5.2,19.1,4.8,18.6,4.8,18.1z
	 M7.3,15.3h5.4c0.6,0,1-0.5,1-1V3.3c0-0.5-0.4-1-1-1H7.3c-0.6,0-1,0.5-1,1v10.9C6.3,14.8,6.7,15.3,7.3,15.3z M10.7,16.3H9.3v1.3h1.4
	V16.3z"/>
</svg>
