<svg id="Layer_1" data-name="Layer 1" xmlns="http://www.w3.org/2000/svg" viewBox="0 0 13.01 12.07"><defs><style>.cls-1{fill:#373b42;}</style></defs><title>autotune_icons-KS-1</title><path class="cls-1" d="M7.32,0.49L12.89,10.7a0.87,0.87,0,0,1,0,.91,0.92,0.92,0,0,1-.34.33,0.91,0.91,0,0,1-.46.12H0.94a0.91,0.91,0,0,1-.46-0.12,0.92,0.92,0,0,1-.34-0.33,0.87,0.87,0,0,1,0-.91L5.69,0.49A0.94,0.94,0,0,1,6,.13,0.92,0.92,0,0,1,7,.13,0.94,0.94,0,0,1,7.32.49Zm0.1,6.78L7.55,3.93a0.16,0.16,0,0,0-.07-0.14A0.28,0.28,0,0,0,7.3,3.71H5.71a0.28,0.28,0,0,0-.17.08,0.17,0.17,0,0,0-.07.15L5.59,7.26a0.14,0.14,0,0,0,.07.12,0.31,0.31,0,0,0,.17,0H7.17a0.29,0.29,0,0,0,.17,0A0.16,0.16,0,0,0,7.42,7.26Zm0,2.71V8.6a0.23,0.23,0,0,0-.07-0.17A0.22,0.22,0,0,0,7.2,8.36H5.81a0.22,0.22,0,0,0-.16.07,0.23,0.23,0,0,0-.07.17V10a0.23,0.23,0,0,0,.07.17,0.22,0.22,0,0,0,.16.07H7.2a0.22,0.22,0,0,0,.16-0.07A0.23,0.23,0,0,0,7.44,10Z"/></svg>