<?xml version="1.0" encoding="utf-8"?>
<!-- Generator: Adobe Illustrator 19.2.1, SVG Export Plug-In . SVG Version: 6.00 Build 0)  -->
<svg version="1.1" id="Layer_1" xmlns="http://www.w3.org/2000/svg" xmlns:xlink="http://www.w3.org/1999/xlink" x="0px" y="0px"
	 viewBox="0 0 20 20" enable-background="new 0 0 20 20" xml:space="preserve">
<g>
	<path fill="#373B42" d="M11.2,1.5l8.5,15.7c0.3,0.5,0.3,0.9,0,1.4c-0.1,0.2-0.3,0.4-0.5,0.5c-0.2,0.1-0.5,0.2-0.7,0.2H1.4
		c-0.3,0-0.5-0.1-0.7-0.2c-0.2-0.1-0.4-0.3-0.5-0.5c-0.3-0.5-0.3-0.9,0-1.4L8.7,1.5C8.9,1.3,9,1.1,9.3,0.9C9.5,0.8,9.7,0.7,10,0.7
		s0.5,0.1,0.7,0.2C10.9,1.1,11.1,1.3,11.2,1.5z M11.4,11.9l0.2-5.1c0-0.1,0-0.2-0.1-0.2c-0.1-0.1-0.2-0.1-0.3-0.1H8.8
		c-0.1,0-0.2,0-0.3,0.1C8.4,6.6,8.4,6.7,8.4,6.8l0.2,5.1c0,0.1,0,0.1,0.1,0.2c0.1,0,0.2,0.1,0.3,0.1H11c0.1,0,0.2,0,0.3-0.1
		C11.3,12,11.4,12,11.4,11.9z M11.4,16v-2.1c0-0.1,0-0.2-0.1-0.3c-0.1-0.1-0.2-0.1-0.3-0.1H8.9c-0.1,0-0.2,0-0.3,0.1
		c-0.1,0.1-0.1,0.2-0.1,0.3V16c0,0.1,0,0.2,0.1,0.3c0.1,0.1,0.2,0.1,0.3,0.1H11c0.1,0,0.2,0,0.3-0.1C11.4,16.2,11.4,16.1,11.4,16z"
		/>
</g>
</svg>
