<?xml version="1.0" encoding="utf-8"?>
<!-- Generator: Adobe Illustrator 19.2.1, SVG Export Plug-In . SVG Version: 6.00 Build 0)  -->
<svg version="1.1" id="Layer_1" xmlns="http://www.w3.org/2000/svg" xmlns:xlink="http://www.w3.org/1999/xlink" x="0px" y="0px"
	 viewBox="0 0 13 12.1" style="enable-background:new 0 0 13 12.1;" xml:space="preserve">
<style type="text/css">
	.st0{fill:#FD432E;}
</style>
<title>autotune_icons-KS-1</title>
<path class="st0" d="M7.3,0.5l5.6,10.2c0.2,0.3,0.2,0.6,0,0.9c-0.1,0.1-0.2,0.3-0.3,0.3c-0.1,0.1-0.3,0.1-0.5,0.1H0.9
	c-0.2,0-0.3,0-0.5-0.1c-0.1-0.1-0.3-0.2-0.3-0.3C0,11.3,0,11,0.1,10.7L5.7,0.5C5.8,0.3,5.9,0.2,6,0.1c0.3-0.2,0.7-0.2,1,0
	C7.1,0.2,7.2,0.3,7.3,0.5z M7.4,7.3l0.1-3.3c0-0.1,0-0.1-0.1-0.1c0,0-0.1-0.1-0.2-0.1H5.7c-0.1,0-0.1,0-0.2,0.1c0,0-0.1,0.1-0.1,0.2
	l0.1,3.3c0,0,0,0.1,0.1,0.1c0.1,0,0.1,0,0.2,0h1.3c0.1,0,0.1,0,0.2,0C7.4,7.4,7.4,7.3,7.4,7.3L7.4,7.3z M7.4,10V8.6
	c0-0.1,0-0.1-0.1-0.2c0,0-0.1-0.1-0.2-0.1H5.8c-0.1,0-0.1,0-0.2,0.1c0,0-0.1,0.1-0.1,0.2V10c0,0.1,0,0.1,0.1,0.2
	c0,0,0.1,0.1,0.2,0.1h1.4c0.1,0,0.1,0,0.2-0.1C7.4,10.1,7.4,10.1,7.4,10L7.4,10z"/>
</svg>
