<?xml version="1.0" encoding="utf-8"?>
<!-- Generator: Adobe Illustrator 19.2.1, SVG Export Plug-In . SVG Version: 6.00 Build 0)  -->
<svg version="1.1" id="Layer_1" xmlns="http://www.w3.org/2000/svg" xmlns:xlink="http://www.w3.org/1999/xlink" x="0px" y="0px"
	 viewBox="0 0 20 20" enable-background="new 0 0 20 20" xml:space="preserve">
<path fill="#373B42" d="M18.1,12.7c0,0.8-0.5,1.5-1.2,1.5c-0.9,0-1.9,0-2.8,0c0-2.7,0-5.4,0-8.2c0-0.8-0.5-1.4-1.1-1.4c-2,0-4,0-6,0
	c0-1.1,0-2.1,0-3.2C7.1,0.6,7.5,0,8.2,0c2.9,0,5.9,0,8.8,0c0.6,0,1.1,0.6,1.1,1.4C18.1,5.2,18.1,9,18.1,12.7z M11.8,20
	c0.7,0,1.2-0.7,1.2-1.5c0-3.8,0-7.5,0-11.3c0-0.8-0.5-1.4-1.1-1.4c-2.9,0-5.9,0-8.8,0c-0.7,0-1.1,0.6-1.1,1.5c0,3.8,0,7.5,0,11.3
	C1.9,19.4,2.4,20,3,20c1.5,0,2.9,0,4.4,0C8.9,20,10.3,20,11.8,20z"/>
</svg>
