<svg id="Layer_1" data-name="Layer 1" xmlns="http://www.w3.org/2000/svg" viewBox="0 0 21.93 27.09"><defs><style>.cls-1{fill:#373b42;}</style></defs><title>autotune_icons-KS-1</title><path class="cls-1" d="M21.93,17.24a1.79,1.79,0,0,1-1.56,2c-1.27,0-2.55,0-3.82,0q0-5.53,0-11.05a1.67,1.67,0,0,0-1.48-1.92H7Q7,4.12,7,2c0-1.19.6-2,1.52-2H20.44a1.67,1.67,0,0,1,1.48,1.92C21.92,7,21.91,12.13,21.93,17.24Zm-8.56,9.85a1.79,1.79,0,0,0,1.56-2c0-5.11,0-10.21,0-15.32a1.67,1.67,0,0,0-1.48-1.92H1.52C0.6,7.84,0,8.62,0,9.81q0,7.63,0,15.25c0,1.22.61,2,1.55,2h5.9C9.42,27.08,11.4,27,13.37,27.09Z"/></svg>