<?xml version="1.0" encoding="utf-8"?>
<!-- Generator: Adobe Illustrator 16.0.4, SVG Export Plug-In . SVG Version: 6.00 Build 0)  -->
<!DOCTYPE svg PUBLIC "-//W3C//DTD SVG 1.1//EN" "http://www.w3.org/Graphics/SVG/1.1/DTD/svg11.dtd">
<svg version="1.1" id="Layer_1" xmlns="http://www.w3.org/2000/svg" xmlns:xlink="http://www.w3.org/1999/xlink" x="0px" y="0px"
	 width="27.15px" height="27.15px" viewBox="0 0 27.15 27.15" enable-background="new 0 0 27.15 27.15" xml:space="preserve">
<path fill="#404040" d="M18.821,11.475l-8.642,8.644c-0.038,0.035-0.079,0.055-0.115,0.076L5.676,21.94
	c-0.06,0.021-0.097,0.021-0.136,0.021c-0.099,0-0.175-0.041-0.253-0.097c-0.097-0.098-0.117-0.256-0.078-0.387l1.747-4.391
	c0.021-0.037,0.041-0.077,0.079-0.115l8.639-8.641L18.821,11.475z M21.654,7.146l-1.65-1.65c-0.426-0.41-1.087-0.41-1.495,0
	l-1.786,1.786l3.146,3.145l1.785-1.787C22.062,8.231,22.062,7.574,21.654,7.146"/>
</svg>
