<?xml version="1.0" encoding="utf-8"?>
<!-- Generator: Adobe Illustrator 19.2.1, SVG Export Plug-In . SVG Version: 6.00 Build 0)  -->
<svg version="1.1" id="Layer_1" xmlns="http://www.w3.org/2000/svg" xmlns:xlink="http://www.w3.org/1999/xlink" x="0px" y="0px"
	 viewBox="0 0 20 20" enable-background="new 0 0 20 20" xml:space="preserve">
<path fill="#373B42" d="M16.3,7.5L6,17.8c0,0-0.1,0.1-0.1,0.1L0.6,20c-0.1,0-0.1,0-0.2,0c-0.1,0-0.2,0-0.3-0.1C0,19.8,0,19.6,0,19.4
	l2.1-5.2c0,0,0-0.1,0.1-0.1L12.5,3.7L16.3,7.5z M19.6,2.3l-2-2c-0.5-0.5-1.3-0.5-1.8,0l-2.1,2.1l3.8,3.7l2.1-2.1
	C20.1,3.6,20.1,2.8,19.6,2.3"/>
</svg>
