<?xml version="1.0" encoding="utf-8"?>
<!-- Generator: Adobe Illustrator 16.0.4, SVG Export Plug-In . SVG Version: 6.00 Build 0)  -->
<!DOCTYPE svg PUBLIC "-//W3C//DTD SVG 1.1//EN" "http://www.w3.org/Graphics/SVG/1.1/DTD/svg11.dtd">
<svg version="1.1" id="Layer_1" xmlns="http://www.w3.org/2000/svg" xmlns:xlink="http://www.w3.org/1999/xlink" x="0px" y="0px"
	 width="27.151px" height="27.151px" viewBox="0 0 27.151 27.151" enable-background="new 0 0 27.151 27.151" xml:space="preserve">
<path fill="#035E79" d="M18.846,11.265l-8.641,8.643c-0.038,0.036-0.079,0.055-0.115,0.077L5.701,21.73
	c-0.06,0.021-0.097,0.021-0.136,0.021c-0.099,0-0.175-0.041-0.253-0.098c-0.097-0.097-0.117-0.255-0.078-0.387l1.747-4.39
	c0.021-0.038,0.041-0.077,0.079-0.116L15.7,8.121L18.846,11.265z M21.68,6.937l-1.65-1.65c-0.426-0.41-1.088-0.41-1.496,0
	l-1.785,1.786l3.146,3.145L21.68,8.43C22.088,8.021,22.088,7.364,21.68,6.937"/>
</svg>
