<svg id="Layer_1" data-name="Layer 1" xmlns="http://www.w3.org/2000/svg" viewBox="0 0 15.96 15.96"><defs><style>.cls-1{fill:#373b42;}</style></defs><title>autotune_icons-KS-1</title><path class="cls-1" d="M2.34,2.34A7.69,7.69,0,0,1,8,0a7.69,7.69,0,0,1,5.64,2.34A7.69,7.69,0,0,1,16,8a7.69,7.69,0,0,1-2.34,5.64A7.69,7.69,0,0,1,8,16a7.69,7.69,0,0,1-5.64-2.34A7.69,7.69,0,0,1,0,8,7.69,7.69,0,0,1,2.34,2.34M7,5.26a1.33,1.33,0,0,0,1.88,0,1.27,1.27,0,0,0,.39-0.94A1.33,1.33,0,0,0,7,3.38a1.28,1.28,0,0,0-.39.94A1.27,1.27,0,0,0,7,5.26M9,7.32H7V13H9V7.32Z"/></svg>