<?xml version="1.0" encoding="utf-8"?>
<!-- Generator: Adobe Illustrator 19.2.1, SVG Export Plug-In . SVG Version: 6.00 Build 0)  -->
<svg version="1.1" id="Layer_1" xmlns="http://www.w3.org/2000/svg" xmlns:xlink="http://www.w3.org/1999/xlink" x="0px" y="0px"
	 viewBox="0 0 20 20" style="enable-background:new 0 0 20 20;" xml:space="preserve">
<style type="text/css">
	.st0{fill:#282E35;}
</style>
<path class="st0" d="M2.9,2.9C4.9,1,7.2,0,10,0s5.1,1,7,2.9s2.9,4.3,2.9,7c0,2.8-1,5.1-2.9,7s-4.3,2.9-7,2.9c-2.8,0-5.1-1-7-2.9
	c-2-1.8-3-4.2-3-6.9C0,7.2,1,4.9,2.9,2.9 M8.8,6.6C9.1,6.9,9.5,7.1,10,7.1s0.9-0.2,1.2-0.5s0.5-0.7,0.5-1.2s-0.2-0.9-0.5-1.2
	S10.5,3.7,10,3.7S9.1,3.9,8.8,4.2S8.3,4.9,8.3,5.4S8.5,6.3,8.8,6.6 M11.2,9.1H8.7v7.1h2.5V9.1z"/>
</svg>
