<?xml version="1.0" encoding="utf-8"?>
<!-- Generator: Adobe Illustrator 19.2.1, SVG Export Plug-In . SVG Version: 6.00 Build 0)  -->
<svg version="1.1" id="Layer_1" xmlns="http://www.w3.org/2000/svg" xmlns:xlink="http://www.w3.org/1999/xlink" x="0px" y="0px"
	 viewBox="0 0 16.9 13.4" style="enable-background:new 0 0 16.9 13.4;" xml:space="preserve">
<style type="text/css">
	.st0{fill:#88B716;}
</style>
<title>autotune_icons-KS-1</title>
<path class="st0" d="M16.8,3.1L6.6,13.3c-0.1,0.1-0.2,0.1-0.2,0.1c-0.1,0-0.2,0-0.2-0.1l-6-6C0,7.2-0.1,7,0,6.8c0,0,0,0,0.1-0.1
	l2.5-2.4C2.7,4.2,2.9,4.2,3,4.3c0,0,0,0,0.1,0.1l3.3,3.3l7.5-7.5C13.9,0,14.1,0,14.3,0.1c0,0,0,0,0.1,0.1l2.5,2.5
	C17,2.7,17,2.9,16.8,3.1C16.9,3.1,16.8,3.1,16.8,3.1"/>
</svg>
