<?xml version="1.0" encoding="utf-8"?>
<!-- Generator: Adobe Illustrator 16.0.4, SVG Export Plug-In . SVG Version: 6.00 Build 0)  -->
<!DOCTYPE svg PUBLIC "-//W3C//DTD SVG 1.1//EN" "http://www.w3.org/Graphics/SVG/1.1/DTD/svg11.dtd">
<svg version="1.1" id="Layer_1" xmlns="http://www.w3.org/2000/svg" xmlns:xlink="http://www.w3.org/1999/xlink" x="0px" y="0px"
	 width="27.15px" height="27.15px" viewBox="0 0 27.15 27.15" enable-background="new 0 0 27.15 27.15" xml:space="preserve">
<path fill="#404040" d="M13.574,5.41c-4.838,0-10.498,5.326-10.498,8.166c0,2.839,5.66,8.165,10.498,8.165
	c4.839,0,10.499-5.326,10.499-8.165C24.073,10.736,18.413,5.41,13.574,5.41 M13.577,19.408c-3.221,0-5.832-2.61-5.832-5.83
	c0-0.852,0.187-1.693,0.547-2.465l5.285,2.465L11.582,8.1c0.638-0.233,1.314-0.353,1.995-0.353c3.22,0,5.83,2.611,5.83,5.831
	S16.797,19.408,13.577,19.408"/>
</svg>
