<?xml version="1.0" encoding="utf-8"?>
<!-- Generator: Adobe Illustrator 19.2.1, SVG Export Plug-In . SVG Version: 6.00 Build 0)  -->
<svg version="1.1" id="Layer_1" xmlns="http://www.w3.org/2000/svg" xmlns:xlink="http://www.w3.org/1999/xlink" x="0px" y="0px"
	 viewBox="0 0 20 20" enable-background="new 0 0 20 20" xml:space="preserve">
<path fill="#373B42" d="M10,2.2C5.4,2.2,0,7.3,0,10c0,2.7,5.4,7.8,10,7.8c4.6,0,10-5.1,10-7.8C20,7.3,14.6,2.2,10,2.2 M10,15.5
	c-3.1,0-5.5-2.5-5.5-5.5c0-0.8,0.2-1.6,0.5-2.3l5,2.3L8.1,4.8C8.7,4.6,9.3,4.5,10,4.5c3.1,0,5.5,2.5,5.5,5.5
	C15.5,13.1,13.1,15.5,10,15.5"/>
</svg>
