<svg id="Layer_1" data-name="Layer 1" xmlns="http://www.w3.org/2000/svg" viewBox="0 0 15.96 15.96"><defs><style>.cls-1{fill:#373b42;}</style></defs><title>autotune_icons-KS-1</title><path class="cls-1" d="M15.17,9.36a7.12,7.12,0,0,1-2.52,4.25A7.08,7.08,0,0,1,8,15.29,7.09,7.09,0,0,1,3,13.37L0.57,15.87A0.42,0.42,0,0,1,.33,16l-0.13,0A0.32,0.32,0,0,1,0,15.63V9.31A0.32,0.32,0,0,1,.09,9.07,0.33,0.33,0,0,1,.33,9H6.65a0.32,0.32,0,0,1,.32.2,0.34,0.34,0,0,1-.08.37l-2,1.94a4.45,4.45,0,0,0,3,1.15,4.49,4.49,0,0,0,2.83-1,4.64,4.64,0,0,0,1.66-2.46A0.29,0.29,0,0,1,12.78,9h2.05a0.27,0.27,0,0,1,.26.13,0.34,0.34,0,0,1,.07.26M0.79,6.59A7.08,7.08,0,0,1,3.3,2.36,7.09,7.09,0,0,1,8,.67a7.08,7.08,0,0,1,4.93,1.92l2.48-2.49A0.42,0.42,0,0,1,15.63,0l0.13,0a0.32,0.32,0,0,1,.2.31V6.65a0.32,0.32,0,0,1-.33.33H9.31A0.32,0.32,0,0,1,9,6.78a0.34,0.34,0,0,1,.07-0.37l2-1.94A4.44,4.44,0,0,0,8,3.32a4.48,4.48,0,0,0-2.83,1A4.63,4.63,0,0,0,3.49,6.74,0.29,0.29,0,0,1,3.18,7H1.13A0.31,0.31,0,0,1,.87,6.87,0.43,0.43,0,0,1,.79,6.59"/></svg>