<?xml version="1.0" encoding="utf-8"?>
<!-- Generator: Adobe Illustrator 16.0.4, SVG Export Plug-In . SVG Version: 6.00 Build 0)  -->
<!DOCTYPE svg PUBLIC "-//W3C//DTD SVG 1.1//EN" "http://www.w3.org/Graphics/SVG/1.1/DTD/svg11.dtd">
<svg version="1.1" id="Layer_1" xmlns="http://www.w3.org/2000/svg" xmlns:xlink="http://www.w3.org/1999/xlink" x="0px" y="0px"
	 width="27.151px" height="27.151px" viewBox="0 0 27.151 27.151" enable-background="new 0 0 27.151 27.151" xml:space="preserve">
<path fill="#404040" d="M20.778,14.963c-0.332,1.717-1.174,3.137-2.527,4.258c-1.352,1.125-2.91,1.686-4.675,1.686
	c-1.89,0-3.537-0.641-4.945-1.925l-2.481,2.5c-0.086,0.062-0.166,0.093-0.239,0.093c-0.062,0-0.105-0.006-0.131-0.018
	c-0.136-0.062-0.203-0.168-0.203-0.314v-6.336c0-0.098,0.03-0.178,0.092-0.238c0.062-0.062,0.143-0.094,0.242-0.094h6.332
	c0.148,0,0.254,0.067,0.316,0.203c0.049,0.15,0.023,0.271-0.075,0.371l-1.963,1.943c0.864,0.766,1.883,1.15,3.056,1.15
	c1.062,0,2.005-0.322,2.833-0.965c0.826-0.641,1.383-1.463,1.666-2.463c0.037-0.16,0.143-0.24,0.314-0.24h2.057
	c0.123,0,0.209,0.045,0.258,0.129C20.766,14.792,20.792,14.875,20.778,14.963 M6.372,12.187c0.32-1.704,1.156-3.121,2.508-4.25
	c1.353-1.129,2.916-1.693,4.695-1.693c1.888,0,3.537,0.64,4.945,1.925l2.48-2.5c0.086-0.062,0.166-0.093,0.24-0.093
	c0.062,0,0.105,0.006,0.131,0.017c0.135,0.063,0.203,0.168,0.203,0.315v6.336c0,0.097-0.031,0.177-0.092,0.238
	c-0.062,0.062-0.143,0.094-0.242,0.094h-6.332c-0.148,0-0.254-0.067-0.316-0.203c-0.049-0.151-0.023-0.272,0.074-0.371l1.963-1.944
	c-0.863-0.766-1.883-1.15-3.054-1.15c-1.062,0-2.007,0.322-2.834,0.965c-0.828,0.641-1.383,1.462-1.666,2.462
	c-0.037,0.161-0.143,0.241-0.314,0.241H6.704c-0.11,0-0.197-0.036-0.258-0.112C6.384,12.353,6.358,12.261,6.372,12.187"/>
</svg>
