<?xml version="1.0" encoding="utf-8"?>
<!-- Generator: Adobe Illustrator 16.0.4, SVG Export Plug-In . SVG Version: 6.00 Build 0)  -->
<!DOCTYPE svg PUBLIC "-//W3C//DTD SVG 1.1//EN" "http://www.w3.org/Graphics/SVG/1.1/DTD/svg11.dtd">
<svg version="1.1" id="Layer_1" xmlns="http://www.w3.org/2000/svg" xmlns:xlink="http://www.w3.org/1999/xlink" x="0px" y="0px"
	 width="27.151px" height="27.15px" viewBox="0 0 27.151 27.15" enable-background="new 0 0 27.151 27.15" xml:space="preserve">
<path fill="#035E79" d="M20.779,14.962c-0.332,1.718-1.176,3.138-2.527,4.259c-1.352,1.125-2.91,1.687-4.676,1.687
	c-1.89,0-3.538-0.642-4.946-1.926l-2.481,2.5c-0.086,0.062-0.166,0.094-0.239,0.094c-0.062,0-0.105-0.007-0.131-0.019
	c-0.136-0.062-0.203-0.168-0.203-0.313v-6.336c0-0.099,0.03-0.179,0.092-0.24c0.062-0.062,0.143-0.092,0.242-0.092h6.332
	c0.148,0,0.254,0.066,0.316,0.202c0.049,0.15,0.023,0.271-0.075,0.371l-1.963,1.942c0.864,0.767,1.883,1.152,3.056,1.152
	c1.061,0,2.006-0.324,2.834-0.966c0.826-0.641,1.383-1.463,1.666-2.463c0.037-0.16,0.141-0.239,0.314-0.239h2.057
	c0.123,0,0.209,0.043,0.258,0.129C20.767,14.791,20.792,14.876,20.779,14.962 M6.372,12.186c0.32-1.704,1.156-3.121,2.508-4.25
	c1.353-1.129,2.916-1.693,4.696-1.693c1.889,0,3.537,0.64,4.943,1.925l2.482-2.5c0.086-0.062,0.166-0.093,0.24-0.093
	c0.062,0,0.105,0.006,0.131,0.017c0.135,0.063,0.203,0.168,0.203,0.315v6.336c0,0.097-0.031,0.177-0.094,0.239
	c-0.061,0.063-0.141,0.094-0.24,0.094H14.91c-0.148,0-0.254-0.069-0.316-0.204C14.544,12.221,14.57,12.1,14.667,12l1.963-1.944
	c-0.863-0.766-1.883-1.15-3.055-1.15c-1.062,0-2.007,0.322-2.834,0.965c-0.828,0.641-1.383,1.462-1.666,2.462
	c-0.037,0.162-0.143,0.242-0.314,0.242H6.704c-0.11,0-0.197-0.037-0.258-0.114C6.384,12.353,6.358,12.26,6.372,12.186"/>
</svg>
