<?xml version="1.0" encoding="utf-8"?>
<!-- Generator: Adobe Illustrator 19.2.1, SVG Export Plug-In . SVG Version: 6.00 Build 0)  -->
<svg version="1.1" id="Layer_1" xmlns="http://www.w3.org/2000/svg" xmlns:xlink="http://www.w3.org/1999/xlink" x="0px" y="0px"
	 viewBox="0 0 20 20" enable-background="new 0 0 20 20" xml:space="preserve">
<path fill="#373B42" d="M19,11.7c-0.4,2.1-1.5,3.9-3.2,5.3c-1.7,1.4-3.6,2.1-5.8,2.1c-2.4,0-4.4-0.8-6.2-2.4l-3.1,3.1
	C0.6,20,0.5,20,0.4,20c-0.1,0-0.1,0-0.2,0C0.1,19.9,0,19.8,0,19.6v-7.9c0-0.1,0-0.2,0.1-0.3c0.1-0.1,0.2-0.1,0.3-0.1h7.9
	c0.2,0,0.3,0.1,0.4,0.3c0.1,0.2,0,0.3-0.1,0.5l-2.5,2.4c1.1,1,2.4,1.4,3.8,1.4c1.3,0,2.5-0.4,3.5-1.2c1-0.8,1.7-1.8,2.1-3.1
	c0-0.2,0.2-0.3,0.4-0.3h2.6c0.2,0,0.3,0.1,0.3,0.2C19,11.5,19,11.6,19,11.7 M1,8.3C1.4,6.1,2.4,4.4,4.1,3C5.8,1.5,7.8,0.8,10,0.8
	c2.4,0,4.4,0.8,6.2,2.4l3.1-3.1C19.4,0,19.5,0,19.6,0c0.1,0,0.1,0,0.2,0C19.9,0.1,20,0.2,20,0.4v7.9c0,0.1,0,0.2-0.1,0.3
	c-0.1,0.1-0.2,0.1-0.3,0.1h-7.9c-0.2,0-0.3-0.1-0.4-0.3c-0.1-0.2,0-0.3,0.1-0.5l2.5-2.4c-1.1-1-2.4-1.4-3.8-1.4
	c-1.3,0-2.5,0.4-3.5,1.2c-1,0.8-1.7,1.8-2.1,3.1c0,0.2-0.2,0.3-0.4,0.3H1.4c-0.1,0-0.2,0-0.3-0.1C1,8.5,1,8.4,1,8.3"/>
</svg>
